<svg xmlns="http://www.w3.org/2000/svg" xmlns:xlink="http://www.w3.org/1999/xlink" version="1.1" width="256" height="256" viewBox="0 0 256 256" xml:space="preserve">

<defs>
</defs>
<g style="stroke: none; stroke-width: 0; stroke-dasharray: none; stroke-linecap: butt; stroke-linejoin: miter; stroke-miterlimit: 10; fill: none; fill-rule: nonzero; opacity: 1;" transform="translate(1.4065934065934016 1.4065934065934016) scale(2.81 2.81)" >
	<path d="M 85.095 4.333 H 4.905 C 2.201 4.333 0 6.534 0 9.238 V 57.11 v 6.498 c 0 2.705 2.201 4.906 4.905 4.906 h 28.522 v 9.529 h -2.534 c -2.763 0 -5.01 2.248 -5.01 5.011 v 1.612 c 0 0.553 0.448 1 1 1 h 36.234 c 0.553 0 1 -0.447 1 -1 v -1.612 c 0 -2.763 -2.248 -5.011 -5.011 -5.011 h -2.534 v -9.529 h 28.522 c 2.705 0 4.905 -2.201 4.905 -4.906 V 57.11 V 9.238 C 90 6.534 87.8 4.333 85.095 4.333 z M 2 9.238 c 0 -1.602 1.303 -2.905 2.905 -2.905 h 80.189 C 86.696 6.333 88 7.636 88 9.238 V 56.11 H 31.067 H 8.315 H 2 V 9.238 z M 62.117 83.055 v 0.612 H 27.883 v -0.612 c 0 -1.66 1.351 -3.011 3.01 -3.011 h 3.534 h 21.145 h 3.534 C 60.767 80.044 62.117 81.395 62.117 83.055 z M 54.572 78.044 H 35.427 v -9.529 h 19.145 V 78.044 z M 88 63.608 c 0 1.603 -1.304 2.906 -2.905 2.906 H 55.572 H 34.427 H 4.905 C 3.303 66.515 2 65.211 2 63.608 V 58.11 h 6.315 h 22.752 H 88 V 63.608 z" style="stroke: none; stroke-width: 1; stroke-dasharray: none; stroke-linecap: butt; stroke-linejoin: miter; stroke-miterlimit: 10; fill: #005ad5; fill-rule: nonzero; opacity: 1;" transform=" matrix(1 0 0 1 0 0) " stroke-linecap="round" />
	<path d="M 41.68 63.313 h 6.639 c 0.553 0 1 -0.447 1 -1 s -0.447 -1 -1 -1 H 41.68 c -0.552 0 -1 0.447 -1 1 S 41.128 63.313 41.68 63.313 z" style="stroke: none; stroke-width: 1; stroke-dasharray: none; stroke-linecap: butt; stroke-linejoin: miter; stroke-miterlimit: 10; fill: #005ad5; fill-rule: nonzero; opacity: 1;" transform=" matrix(1 0 0 1 0 0) " stroke-linecap="round" />
	<path d="M 9.315 52.079 v -5.354 c 0 -1.188 0.95 -2.211 2.258 -2.431 l 2.885 -0.486 l 5.737 5.869 c 0.188 0.192 0.446 0.301 0.715 0.301 s 0.527 -0.108 0.715 -0.301 l 5.779 -5.912 l 1.471 0.104 c 0.71 0.05 1.33 0.513 1.581 1.179 l 0.563 1.499 c 0.109 0.29 0.345 0.513 0.641 0.604 c 0.295 0.094 0.618 0.043 0.87 -0.137 l 7.114 -4.992 l 2.099 2.431 l -7.583 6.271 c -0.426 0.352 -0.485 0.982 -0.133 1.408 c 0.198 0.238 0.483 0.362 0.771 0.362 c 0.225 0 0.45 -0.075 0.637 -0.229 l 8.371 -6.921 c 0.007 -0.006 0.01 -0.014 0.016 -0.02 c 0.007 -0.006 0.017 -0.009 0.024 -0.015 l 1.154 -1.064 c 1.114 -1.027 1.313 -2.674 0.549 -3.933 l 6.531 -5.589 c 0.419 -0.359 0.469 -0.99 0.109 -1.41 c -0.36 -0.42 -0.991 -0.467 -1.41 -0.109 l -6.61 5.656 c -0.98 -0.593 -2.246 -0.631 -3.265 -0.011 l -1.613 0.981 c -0.009 0.006 -0.014 0.016 -0.023 0.022 c -0.01 0.007 -0.022 0.007 -0.031 0.014 l -6.798 4.77 l -0.109 -0.291 c -0.524 -1.395 -1.824 -2.365 -3.312 -2.47 l -1.837 -0.125 c -0.833 -0.14 -1.438 -0.782 -1.439 -1.548 l -0.01 -0.445 c 1.509 -1.502 2.485 -3.514 2.669 -5.709 c 0 -0.003 -0.001 -0.006 -0.001 -0.01 c 0 -0.004 0.002 -0.006 0.003 -0.01 l 0.252 -3.919 c 1.451 -2.251 1.917 -4.29 1.368 -6.059 c -0.482 -1.551 -1.729 -2.857 -3.715 -3.895 c 0.083 -0.042 0.174 -0.085 0.273 -0.131 c 0.367 -0.168 0.596 -0.541 0.582 -0.944 c -0.015 -0.403 -0.27 -0.758 -0.648 -0.9 c -4.056 -1.524 -9.219 -1.333 -11.803 2.439 c -1.366 0.556 -2.36 1.573 -2.82 2.896 c -0.652 1.873 -0.186 4.201 1.293 6.581 l 0.239 3.95 c 0.184 2.196 1.16 4.208 2.669 5.71 l -0.011 0.468 c 0 0.743 -0.605 1.385 -1.438 1.525 l -3.4 0.573 c -2.275 0.383 -3.926 2.235 -3.926 4.404 v 5.354 c 0 0.553 0.448 1 1 1 S 9.315 52.632 9.315 52.079 z M 41.941 40.557 c 0.479 -0.293 1.112 -0.187 1.471 0.245 l 0.009 0.011 c 0 0 0 0 0 0 s 0 0 0 0 l 0.325 0.391 c 0.389 0.468 0.343 1.157 -0.104 1.569 l -0.395 0.364 l -1.91 -2.213 L 41.941 40.557 z M 20.91 47.548 l -4.371 -4.472 c 0.68 -0.471 1.175 -1.144 1.398 -1.918 c 0.469 0.274 0.957 0.522 1.479 0.711 c 0.48 0.174 0.984 0.262 1.495 0.262 s 1.014 -0.088 1.495 -0.262 c 0.523 -0.189 1.012 -0.438 1.482 -0.713 c 0.224 0.77 0.716 1.437 1.404 1.909 L 20.91 47.548 z M 13.778 24.172 c 0.294 -0.846 0.954 -1.462 1.909 -1.784 c 0.221 -0.075 0.408 -0.224 0.531 -0.421 c 1.189 -1.92 3.289 -2.686 5.523 -2.686 c 0.704 0 1.422 0.076 2.128 0.216 c -0.172 0.222 -0.285 0.454 -0.344 0.7 c -0.116 0.484 0.142 0.979 0.604 1.163 c 2.241 0.887 3.58 1.992 3.981 3.283 c 0.19 0.611 0.179 1.302 -0.031 2.067 c -0.025 -0.025 -0.051 -0.05 -0.078 -0.074 c -0.351 -0.309 -0.807 -0.429 -1.258 -0.345 c -1.41 0.221 -2.964 0.326 -4.761 -0.36 c -2.162 -0.905 -4.885 -1.792 -6.785 -0.606 c -0.574 0.358 -1.024 0.861 -1.355 1.517 C 13.539 25.843 13.513 24.933 13.778 24.172 z M 15.168 29.813 c 0.093 -1.456 0.457 -2.398 1.087 -2.791 c 0.852 -0.531 2.472 -0.286 4.983 0.766 c 2.081 0.795 3.889 0.746 5.433 0.535 c 0.031 0.241 0.045 0.665 0.002 1.407 c 0 0 0 0.001 0 0.001 l -0.267 4.151 c -0.232 2.766 -2.069 5.163 -4.68 6.107 c -0.262 0.095 -0.536 0.143 -0.815 0.143 c -0.279 0 -0.554 -0.048 -0.815 -0.143 c -2.612 -0.944 -4.449 -3.342 -4.679 -6.086 L 15.168 29.813 z" style="stroke: none; stroke-width: 1; stroke-dasharray: none; stroke-linecap: butt; stroke-linejoin: miter; stroke-miterlimit: 10; fill: #005ad5; fill-rule: nonzero; opacity: 1;" transform=" matrix(1 0 0 1 0 0) " stroke-linecap="round" />
	<path d="M 52.913 18.794 h 28.211 c 0.553 0 1 -0.448 1 -1 s -0.447 -1 -1 -1 H 52.913 c -0.553 0 -1 0.448 -1 1 S 52.36 18.794 52.913 18.794 z" style="stroke: none; stroke-width: 1; stroke-dasharray: none; stroke-linecap: butt; stroke-linejoin: miter; stroke-miterlimit: 10; fill: #005ad5; fill-rule: nonzero; opacity: 1;" transform=" matrix(1 0 0 1 0 0) " stroke-linecap="round" />
	<path d="M 52.913 26.794 h 28.211 c 0.553 0 1 -0.448 1 -1 s -0.447 -1 -1 -1 H 52.913 c -0.553 0 -1 0.448 -1 1 S 52.36 26.794 52.913 26.794 z" style="stroke: none; stroke-width: 1; stroke-dasharray: none; stroke-linecap: butt; stroke-linejoin: miter; stroke-miterlimit: 10; fill: #005ad5; fill-rule: nonzero; opacity: 1;" transform=" matrix(1 0 0 1 0 0) " stroke-linecap="round" />
	<path d="M 81.124 32.794 H 58.913 c -0.553 0 -1 0.448 -1 1 s 0.447 1 1 1 h 22.211 c 0.553 0 1 -0.448 1 -1 S 81.677 32.794 81.124 32.794 z" style="stroke: none; stroke-width: 1; stroke-dasharray: none; stroke-linecap: butt; stroke-linejoin: miter; stroke-miterlimit: 10; fill: #005ad5; fill-rule: nonzero; opacity: 1;" transform=" matrix(1 0 0 1 0 0) " stroke-linecap="round" />
	<path d="M 81.124 40.794 H 52.913 c -0.553 0 -1 0.448 -1 1 s 0.447 1 1 1 h 28.211 c 0.553 0 1 -0.448 1 -1 S 81.677 40.794 81.124 40.794 z" style="stroke: none; stroke-width: 1; stroke-dasharray: none; stroke-linecap: butt; stroke-linejoin: miter; stroke-miterlimit: 10; fill: #005ad5; fill-rule: nonzero; opacity: 1;" transform=" matrix(1 0 0 1 0 0) " stroke-linecap="round" />
</g>
</svg>