<svg xmlns="http://www.w3.org/2000/svg" xmlns:xlink="http://www.w3.org/1999/xlink" version="1.1" width="256" height="256" viewBox="0 0 256 256" xml:space="preserve">

<defs>
</defs>
<g style="stroke: none; stroke-width: 0; stroke-dasharray: none; stroke-linecap: butt; stroke-linejoin: miter; stroke-miterlimit: 10; fill: none; fill-rule: nonzero; opacity: 1;" transform="translate(1.4065934065934016 1.4065934065934016) scale(2.81 2.81)" >
	<polygon points="56.83,27.48 56.83,24.52 54.71,27.48 " style="stroke: none; stroke-width: 1; stroke-dasharray: none; stroke-linecap: butt; stroke-linejoin: miter; stroke-miterlimit: 10; fill: #005ad5; fill-rule: nonzero; opacity: 1;" transform="  matrix(1 0 0 1 0 0) "/>
	<path d="M 87.974 11.238 H 37.368 c -1.119 0 -2.026 0.907 -2.026 2.026 v 24.199 c 0 1.119 0.907 2.026 2.026 2.026 h 11.894 v 7.923 c 0 0.866 0.988 1.361 1.682 0.843 l 11.727 -8.766 h 25.303 c 1.119 0 2.026 -0.907 2.026 -2.026 V 13.264 C 90 12.145 89.093 11.238 87.974 11.238 z M 48.625 32.561 H 43.11 c -0.562 0 -1.076 -0.313 -1.333 -0.813 c -0.257 -0.499 -0.215 -1.1 0.111 -1.557 l 5.03 -7.072 c 0.362 -0.509 0.161 -1.019 0.091 -1.163 c -0.083 -0.171 -0.338 -0.573 -0.893 -0.598 c -0.001 0 -0.002 0 -0.003 0 c -0.859 0 -1.503 0.645 -1.503 1.438 c 0 0.829 -0.671 1.5 -1.5 1.5 s -1.5 -0.671 -1.5 -1.5 c 0 -2.448 1.991 -4.439 4.439 -4.439 l 0.201 0.004 c 1.501 0.068 2.793 0.92 3.456 2.28 c 0.666 1.367 0.535 2.982 -0.343 4.217 l -3.346 4.702 h 2.607 c 0.828 0 1.5 0.671 1.5 1.5 S 49.453 32.561 48.625 32.561 z M 60.427 30.479 h -0.595 v 0.582 c 0 0.829 -0.672 1.5 -1.5 1.5 s -1.5 -0.671 -1.5 -1.5 v -0.582 h -5.043 c -0.563 0 -1.077 -0.314 -1.334 -0.815 s -0.213 -1.103 0.115 -1.56 l 6.543 -9.122 c 0.38 -0.53 1.059 -0.751 1.678 -0.554 c 0.62 0.2 1.041 0.777 1.041 1.428 v 7.622 h 0.595 c 0.828 0 1.5 0.671 1.5 1.5 S 61.255 30.479 60.427 30.479 z M 74.117 18.22 l -9.383 15.995 c -0.279 0.476 -0.78 0.741 -1.295 0.741 c -0.258 0 -0.52 -0.066 -0.758 -0.206 c -0.715 -0.419 -0.954 -1.338 -0.535 -2.053 l 9.383 -15.995 c 0.419 -0.714 1.339 -0.952 2.053 -0.535 C 74.297 16.587 74.536 17.506 74.117 18.22 z M 84.65 20.616 l -6.572 11.204 c -0.279 0.476 -0.78 0.741 -1.295 0.741 c -0.258 0 -0.52 -0.066 -0.758 -0.206 c -0.715 -0.419 -0.954 -1.338 -0.535 -2.053 l 5.247 -8.945 h -3.953 c -0.828 0 -1.5 -0.671 -1.5 -1.5 s 0.672 -1.5 1.5 -1.5 h 6.572 c 0.538 0 1.034 0.288 1.302 0.754 C 84.926 19.578 84.922 20.152 84.65 20.616 z" style="stroke: none; stroke-width: 1; stroke-dasharray: none; stroke-linecap: butt; stroke-linejoin: miter; stroke-miterlimit: 10; fill: #005ad5; fill-rule: nonzero; opacity: 1;" transform=" matrix(1 0 0 1 0 0) " stroke-linecap="round" />
	<path d="M 8.5 18.218 l 2.58 2.58 c 0.231 0.231 0.586 0.283 0.874 0.129 l 3.092 -1.66 c 0.229 -0.123 0.505 -0.117 0.728 0.016 l 4.511 2.677 c 0.322 0.191 0.451 0.59 0.301 0.933 c -0.385 0.877 -1.087 2.485 -1.366 3.196 c -0.059 0.15 -0.146 0.287 -0.267 0.392 c -3.007 2.606 -8.988 -0.569 -13.567 -5.148 C 0.807 16.754 -2.368 10.772 0.238 7.766 C 0.343 7.644 0.48 7.557 0.63 7.498 C 1.34 7.22 2.949 6.518 3.826 6.132 c 0.343 -0.151 0.742 -0.021 0.933 0.301 l 2.677 4.511 c 0.132 0.223 0.138 0.5 0.016 0.728 l -1.66 3.092 c -0.154 0.288 -0.102 0.643 0.129 0.874 L 8.5 18.218 z" style="stroke: none; stroke-width: 1; stroke-dasharray: none; stroke-linecap: butt; stroke-linejoin: miter; stroke-miterlimit: 10; fill: #005ad5; fill-rule: nonzero; opacity: 1;" transform=" matrix(2.8008 0 0 2.8008 1.9639999999999986 1.9639999999999702) " stroke-linecap="round" />
</g>
</svg>