<?xml version="1.0" standalone="no"?>
<svg xmlns:xlink="http://www.w3.org/1999/xlink" id="wave" style="transform:rotate(0deg); transition: 0.3s" viewBox="0 0 1440 100" version="1.1" xmlns="http://www.w3.org/2000/svg"><defs><linearGradient id="sw-gradient-0" x1="0" x2="0" y1="1" y2="0"><stop stop-color="rgba(0, 31.036, 172.99, 0.53)" offset="0%"/><stop stop-color="rgba(58.939, 39.656, 248.13, 0.52)" offset="100%"/></linearGradient></defs><path style="transform:translate(0, 0px); opacity:1" fill="url(#sw-gradient-0)" d="M0,10L26.7,10C53.3,10,107,10,160,10C213.3,10,267,10,320,18.3C373.3,27,427,43,480,45C533.3,47,587,33,640,23.3C693.3,13,747,7,800,18.3C853.3,30,907,60,960,75C1013.3,90,1067,90,1120,85C1173.3,80,1227,70,1280,56.7C1333.3,43,1387,27,1440,25C1493.3,23,1547,37,1600,38.3C1653.3,40,1707,30,1760,21.7C1813.3,13,1867,7,1920,11.7C1973.3,17,2027,33,2080,38.3C2133.3,43,2187,37,2240,33.3C2293.3,30,2347,30,2400,31.7C2453.3,33,2507,37,2560,46.7C2613.3,57,2667,73,2720,76.7C2773.3,80,2827,70,2880,61.7C2933.3,53,2987,47,3040,45C3093.3,43,3147,47,3200,51.7C3253.3,57,3307,63,3360,70C3413.3,77,3467,83,3520,81.7C3573.3,80,3627,70,3680,63.3C3733.3,57,3787,53,3813,51.7L3840,50L3840,100L3813.3,100C3786.7,100,3733,100,3680,100C3626.7,100,3573,100,3520,100C3466.7,100,3413,100,3360,100C3306.7,100,3253,100,3200,100C3146.7,100,3093,100,3040,100C2986.7,100,2933,100,2880,100C2826.7,100,2773,100,2720,100C2666.7,100,2613,100,2560,100C2506.7,100,2453,100,2400,100C2346.7,100,2293,100,2240,100C2186.7,100,2133,100,2080,100C2026.7,100,1973,100,1920,100C1866.7,100,1813,100,1760,100C1706.7,100,1653,100,1600,100C1546.7,100,1493,100,1440,100C1386.7,100,1333,100,1280,100C1226.7,100,1173,100,1120,100C1066.7,100,1013,100,960,100C906.7,100,853,100,800,100C746.7,100,693,100,640,100C586.7,100,533,100,480,100C426.7,100,373,100,320,100C266.7,100,213,100,160,100C106.7,100,53,100,27,100L0,100Z"/></svg>