<?xml version="1.0" standalone="no"?>
<svg xmlns:xlink="http://www.w3.org/1999/xlink" id="wave" style="transform:rotate(0deg); transition: 0.3s" viewBox="0 0 1440 100" version="1.1" xmlns="http://www.w3.org/2000/svg"><defs><linearGradient id="sw-gradient-0" x1="0" x2="0" y1="1" y2="0"><stop stop-color="rgba(42.387, 76.439, 232.191, 0.53)" offset="0%"/><stop stop-color="rgba(23.587, 0, 255, 0.52)" offset="100%"/></linearGradient></defs><path style="transform:translate(0, 0px); opacity:1" fill="url(#sw-gradient-0)" d="M0,80L26.7,73.3C53.3,67,107,53,160,40C213.3,27,267,13,320,6.7C373.3,0,427,0,480,10C533.3,20,587,40,640,46.7C693.3,53,747,47,800,50C853.3,53,907,67,960,61.7C1013.3,57,1067,33,1120,31.7C1173.3,30,1227,50,1280,56.7C1333.3,63,1387,57,1440,53.3C1493.3,50,1547,50,1600,55C1653.3,60,1707,70,1760,61.7C1813.3,53,1867,27,1920,28.3C1973.3,30,2027,60,2080,70C2133.3,80,2187,70,2240,58.3C2293.3,47,2347,33,2400,38.3C2453.3,43,2507,67,2560,70C2613.3,73,2667,57,2720,56.7C2773.3,57,2827,73,2880,81.7C2933.3,90,2987,90,3040,76.7C3093.3,63,3147,37,3200,33.3C3253.3,30,3307,50,3360,51.7C3413.3,53,3467,37,3520,31.7C3573.3,27,3627,33,3680,33.3C3733.3,33,3787,27,3813,23.3L3840,20L3840,100L3813.3,100C3786.7,100,3733,100,3680,100C3626.7,100,3573,100,3520,100C3466.7,100,3413,100,3360,100C3306.7,100,3253,100,3200,100C3146.7,100,3093,100,3040,100C2986.7,100,2933,100,2880,100C2826.7,100,2773,100,2720,100C2666.7,100,2613,100,2560,100C2506.7,100,2453,100,2400,100C2346.7,100,2293,100,2240,100C2186.7,100,2133,100,2080,100C2026.7,100,1973,100,1920,100C1866.7,100,1813,100,1760,100C1706.7,100,1653,100,1600,100C1546.7,100,1493,100,1440,100C1386.7,100,1333,100,1280,100C1226.7,100,1173,100,1120,100C1066.7,100,1013,100,960,100C906.7,100,853,100,800,100C746.7,100,693,100,640,100C586.7,100,533,100,480,100C426.7,100,373,100,320,100C266.7,100,213,100,160,100C106.7,100,53,100,27,100L0,100Z"/></svg>